<?xml version="1.0" standalone="no"?>
<!DOCTYPE svg PUBLIC "-//W3C//DTD SVG 20010904//EN"
 "http://www.w3.org/TR/2001/REC-SVG-20010904/DTD/svg10.dtd">
<svg version="1.0" xmlns="http://www.w3.org/2000/svg"
 width="270.000000pt" height="270.000000pt" viewBox="0 0 270.000000 270.000000"
 preserveAspectRatio="xMidYMid meet">
<metadata>
Created by potrace 1.11, written by Peter Selinger 2001-2013
</metadata>
<g transform="translate(0.000000,270.000000) scale(0.100000,-0.100000)"
fill="#000000" stroke="none">
<path d="M0 2295 l0 -403 25 -6 c32 -8 32 -34 0 -42 l-26 -6 3 -117 3 -116
185 -1 c102 -1 195 0 208 3 22 5 22 8 19 106 -3 88 -6 102 -23 108 -10 4 -77
8 -147 8 -110 1 -129 3 -134 18 -9 24 31 48 86 50 40 2 321 10 475 13 66 1 75
10 65 62 -18 101 -29 122 -79 146 -55 26 -57 26 -76 8 -14 -14 -50 -11 -59 5
-3 4 0 17 7 28 11 18 23 20 103 20 94 0 164 -14 166 -33 1 -6 0 -21 0 -33 -1
-11 3 -24 8 -28 14 -8 14 -112 1 -120 -19 -12 -11 -44 13 -49 76 -16 100 -17
108 -4 13 20 1 -41 -42 -200 -21 -79 -35 -151 -32 -159 4 -11 2 -14 -5 -9 -7
4 -12 1 -12 -7 0 -20 -43 -64 -57 -60 -7 3 -20 0 -29 -5 -13 -7 -27 -4 -51 9
-41 23 -43 23 -43 2 0 -9 -13 -28 -29 -42 -22 -20 -30 -36 -32 -71 -2 -25 -1
-44 1 -43 3 1 13 5 23 8 11 5 17 18 17 36 0 19 5 29 15 29 8 0 15 -9 15 -19 0
-11 5 -23 10 -26 6 -4 8 -11 5 -16 -4 -5 1 -12 10 -16 10 -3 21 0 26 8 7 11 9
10 9 -4 0 -14 5 -17 20 -12 11 4 20 2 20 -4 0 -6 7 -11 15 -11 19 0 18 -7 -4
-45 -19 -32 -9 -30 -161 -34 l-56 -1 -1 -73 c-1 -39 3 -84 9 -99 9 -25 15 -28
57 -28 81 0 91 6 91 56 0 24 4 44 9 44 4 0 6 -22 3 -50 -4 -41 -2 -50 12 -50
12 0 16 -9 16 -35 0 -40 -19 -54 -67 -50 -18 1 -33 -2 -33 -7 0 -6 -7 -5 -15
2 -9 8 -15 8 -15 2 0 -6 -15 -13 -32 -16 -18 -2 3 -3 47 -1 44 2 88 7 99 11
17 6 18 3 13 -47 -3 -30 -7 -90 -10 -133 -5 -96 -10 -101 -130 -139 -140 -45
-202 -103 -194 -182 3 -30 -3 -52 -25 -91 -32 -59 -37 -117 -13 -185 9 -24 17
-66 18 -94 l2 -50 185 0 c184 0 185 0 188 23 2 12 8 22 13 22 5 0 9 7 9 15 0
21 27 30 44 16 8 -7 20 -11 28 -10 7 2 28 -5 46 -15 19 -9 36 -15 40 -12 3 3
0 6 -7 6 -13 0 -61 48 -61 61 0 5 12 15 28 23 l27 15 -33 -6 c-26 -4 -32 -2
-32 11 0 25 24 46 40 36 21 -13 32 -1 15 16 -22 23 -18 41 11 47 18 3 24 1 20
-8 -3 -8 2 -16 10 -19 13 -5 12 -11 -6 -36 -25 -35 -13 -40 18 -7 33 35 43 74
37 150 -4 54 -1 76 10 94 20 30 31 23 39 -26 l6 -39 32 30 c18 17 32 37 30 45
-4 17 17 45 28 38 4 -3 15 11 24 30 11 23 24 35 38 35 14 0 18 -5 14 -15 -10
-27 2 -16 18 16 l16 31 -35 -4 c-39 -5 -37 -12 -40 104 -1 60 1 75 12 71 7 -3
13 0 13 6 0 6 7 11 15 11 21 0 33 36 30 93 -1 26 1 47 6 47 5 0 6 7 2 16 -4
12 0 14 20 9 24 -6 27 -3 37 37 9 35 31 92 46 119 1 3 -19 23 -47 45 -27 21
-52 48 -55 59 -4 11 -17 32 -29 46 -12 15 -27 42 -34 60 -7 19 -17 43 -23 54
-6 11 -13 50 -16 88 -3 37 -9 70 -13 73 -5 3 -9 10 -9 15 0 6 4 8 9 4 6 -3 8
8 4 28 -3 19 1 48 11 70 13 33 19 37 50 37 19 0 38 -5 41 -11 5 -7 14 -4 28 8
20 18 20 17 15 -4 -5 -19 -2 -23 17 -23 17 0 28 11 44 43 25 52 26 68 5 110
-20 39 -38 56 -86 82 -21 11 -38 24 -38 30 0 6 9 35 20 65 11 30 20 66 20 80
0 34 9 44 57 70 23 12 47 28 54 36 6 8 17 14 23 14 15 1 51 32 58 51 4 9 1 22
-5 28 -9 9 -9 14 1 20 9 6 10 15 1 39 -6 17 -9 39 -7 49 6 31 39 -34 47 -92 6
-42 16 -62 49 -100 22 -26 48 -68 57 -93 9 -26 23 -60 31 -75 8 -16 14 -33 14
-37 0 -5 11 -21 25 -36 24 -26 27 -50 3 -26 -8 8 -17 6 -36 -8 -14 -11 -38
-20 -54 -20 -16 0 -43 -8 -61 -17 -32 -17 -32 -17 -7 -21 14 -2 49 1 78 8 54
12 117 6 106 -11 -3 -5 -15 -7 -26 -3 -11 3 -18 2 -15 -2 3 -5 -22 -9 -54 -10
-65 0 -114 -26 -114 -59 0 -25 83 -47 148 -38 41 5 50 3 67 -17 12 -14 20 -38
20 -59 1 -20 8 -67 16 -106 30 -133 15 -190 -79 -291 -55 -60 -57 -63 -62
-130 -3 -38 -12 -116 -20 -173 -16 -107 -18 -254 -4 -245 8 5 29 -27 29 -45 0
-6 -14 -11 -30 -11 -45 0 -71 -31 -60 -70 8 -28 7 -30 -12 -24 -14 4 -18 2
-14 -5 4 -6 14 -11 22 -11 8 0 14 -6 14 -14 0 -19 20 -32 29 -18 3 6 19 14 34
17 25 7 27 5 27 -24 0 -26 4 -31 25 -31 33 0 33 -25 0 -105 -14 -33 -21 -61
-16 -63 4 -1 6 -13 4 -26 -3 -14 0 -32 6 -43 8 -15 10 -11 9 20 -2 60 17 66
32 10 22 -79 72 -176 108 -211 l35 -32 223 0 224 0 0 43 c0 49 -28 132 -60
177 -32 45 -17 48 22 5 50 -57 62 -85 61 -145 -1 -38 2 -49 7 -35 31 75 -4
150 -124 264 -58 55 -106 135 -106 177 0 12 8 39 17 60 11 26 17 72 19 139 3
152 2 145 25 145 11 0 17 5 14 10 -4 6 -11 8 -16 5 -5 -4 -9 35 -9 94 0 74 3
101 13 101 6 0 4 5 -5 11 -19 11 -25 39 -8 39 7 0 7 6 0 19 -5 11 -10 35 -10
55 0 19 -5 38 -11 42 -7 4 -10 27 -7 60 3 38 1 55 -9 58 -8 3 -13 20 -12 43
l1 38 14 -35 14 -35 -6 50 c-8 62 -8 63 -24 100 -7 17 -15 56 -18 87 -2 32 -8
56 -12 53 -9 -6 -20 31 -19 65 1 23 2 23 8 -4 3 -16 12 -31 19 -34 11 -3 12 0
4 14 -5 11 -9 38 -7 61 1 31 -1 40 -11 36 -9 -3 -14 2 -14 15 0 12 -9 27 -20
35 -29 20 -37 72 -15 93 16 17 16 18 -4 26 -14 5 -21 16 -21 32 0 14 -4 27 -8
30 -7 4 -35 102 -37 131 -1 6 -7 21 -14 35 -10 18 -11 25 -2 28 32 11 42 36
41 101 0 36 3 81 6 99 l6 32 -63 1 c-35 1 -80 1 -99 0 -19 -1 -83 5 -142 14
-59 9 -127 15 -150 15 -146 -2 -297 -17 -356 -36 -24 -8 -48 -12 -53 -8 -20
12 -124 21 -141 13 -10 -5 -86 -12 -170 -15 -84 -3 -231 -8 -327 -12 -189 -8
-229 -1 -179 32 21 14 54 16 196 17 152 0 173 2 179 17 7 16 9 98 5 199 l-2
43 -340 -2 -340 -1 0 -402z m338 -111 c4 -56 -31 -80 -72 -49 -18 14 -18 15 7
26 13 6 30 22 36 35 15 34 26 30 29 -12z m711 -25 c-18 -36 -39 -59 -39 -42 0
4 -28 8 -63 8 -34 0 -65 5 -69 10 -5 6 -12 4 -18 -5 -8 -13 -12 -12 -28 6 -19
20 -19 21 1 33 11 8 51 13 94 13 41 -1 84 3 96 7 41 15 47 10 26 -30z m266
-357 c-3 -3 -11 0 -18 7 -9 10 -8 11 6 5 10 -3 15 -9 12 -12z m-11 -96 c-6
-15 -41 -25 -63 -18 -9 3 -3 10 15 18 39 17 54 17 48 0z m485 -30 c0 -17 -3
-24 -6 -16 -4 8 -13 20 -21 26 -18 13 -7 35 13 27 9 -3 15 -18 14 -37z m278
-148 c-3 -8 -6 -5 -6 6 -1 11 2 17 5 13 3 -3 4 -12 1 -19z m7 -44 c3 -8 2 -12
-4 -9 -6 3 -10 10 -10 16 0 14 7 11 14 -7z m-1267 -106 c-3 -8 -6 -5 -6 6 -1
11 2 17 5 13 3 -3 4 -12 1 -19z m-37 -310 c0 -16 -3 -19 -11 -11 -6 6 -8 16
-5 22 11 17 16 13 16 -11z m1219 -374 c-18 -22 -22 -11 -7 22 10 21 14 24 16
10 2 -9 -2 -24 -9 -32z m-839 -54 c0 -5 -2 -10 -4 -10 -2 0 -12 -3 -20 -6 -12
-5 -15 -2 -10 10 7 17 34 22 34 6z m551 -53 c11 -7 19 -17 19 -24 0 -7 5 -13
10 -13 6 0 10 -4 10 -9 0 -9 -40 -7 -78 5 -13 3 -21 12 -19 18 2 6 -6 19 -17
29 -21 18 -21 18 18 12 21 -4 47 -12 57 -18z m-86 -13 c17 -13 18 -16 5 -24
-8 -5 -18 -10 -22 -10 -7 0 -28 33 -28 44 0 11 25 5 45 -10z m-965 -18 c0 -2
-35 -25 -77 -52 -43 -26 -88 -56 -100 -67 -22 -20 -23 -20 -23 -1 1 35 35 64
110 94 74 29 90 34 90 26z m1070 -77 c0 -11 -4 -17 -10 -14 -5 3 -10 13 -10
21 0 8 5 14 10 14 6 0 10 -9 10 -21z m-1220 -73 c0 -2 -8 -10 -17 -17 -16 -13
-17 -12 -4 4 13 16 21 21 21 13z m-51 -79 c0 -7 -11 -39 -24 -72 l-24 -60 4
50 c4 55 23 107 36 99 5 -3 9 -11 8 -17z m1720 -78 c11 -19 12 -21 0 -9 -8 8
-21 20 -29 28 -12 11 -12 13 -1 10 8 -2 21 -15 30 -29z m86 -90 c9 -17 14 -36
12 -42 -4 -10 -37 51 -37 68 0 13 11 2 25 -26z"/>
<path d="M1670 574 c0 -8 5 -12 10 -9 6 3 10 10 10 16 0 5 -4 9 -10 9 -5 0
-10 -7 -10 -16z"/>
<path d="M751 2614 c4 -116 10 -122 130 -122 56 0 95 -4 104 -12 12 -10 20 -9
40 4 26 17 124 22 141 7 11 -10 353 1 372 12 6 5 12 15 12 23 0 20 43 17 57
-4 10 -17 23 -18 130 -15 143 4 157 4 258 5 149 1 170 0 204 -7 42 -9 196 12
210 29 7 8 7 24 1 46 -5 19 -9 34 -7 35 1 0 10 7 20 14 15 12 21 11 42 -9 21
-20 27 -21 41 -9 16 13 17 11 10 -16 -18 -73 -15 -80 34 -83 57 -4 67 -4 113
4 l37 6 0 89 0 89 -93 0 c-81 0 -94 -2 -105 -20 -13 -21 -42 -28 -42 -10 0 6
-7 10 -15 10 -8 0 -15 5 -15 10 0 7 -143 10 -409 10 -390 0 -410 -1 -416 -18
-3 -11 -17 -24 -30 -30 -24 -11 -26 -10 -32 18 l-5 30 -395 0 -394 0 2 -86z"/>
<path d="M2512 2445 c-10 -12 -53 -14 -233 -13 -176 0 -223 -2 -233 -13 -9
-10 -11 -42 -8 -106 5 -105 5 -106 97 -104 29 0 73 -5 97 -12 39 -12 46 -11
75 8 18 11 35 28 38 38 8 22 22 22 29 -1 6 -19 81 -44 131 -43 17 0 67 1 113
1 l82 1 0 119 0 118 -72 4 c-40 2 -80 7 -88 11 -8 3 -21 0 -28 -8z"/>
<path d="M1965 2120 c-4 -7 -2 -16 6 -21 18 -11 23 -4 11 17 -7 12 -11 13 -17
4z"/>
<path d="M2528 2124 c-13 -13 5 -130 23 -150 11 -11 17 -23 14 -26 -4 -3 7
-15 24 -27 24 -17 38 -20 70 -15 l41 7 0 108 0 109 -83 0 c-46 0 -86 -3 -89
-6z"/>
<path d="M2303 1961 c-8 -13 -19 -18 -33 -14 -11 3 -20 1 -20 -5 0 -10 56 -22
105 -22 25 1 27 2 12 11 -9 6 -14 15 -11 21 7 10 -12 28 -31 28 -6 0 -16 -9
-22 -19z"/>
<path d="M2420 1919 c0 -5 5 -7 10 -4 6 3 10 8 10 11 0 2 -4 4 -10 4 -5 0 -10
-5 -10 -11z"/>
<path d="M636 1805 c-6 -17 17 -31 34 -20 8 5 8 11 -1 21 -15 18 -25 18 -33
-1z"/>
<path d="M2186 1805 c-7 -21 3 -45 20 -45 18 0 18 34 0 49 -10 9 -15 8 -20 -4z"/>
<path d="M2613 1793 c-18 -7 -16 -20 4 -27 9 -4 20 -1 25 6 6 9 7 5 3 -9 -6
-21 -3 -23 27 -23 22 0 29 3 19 9 -8 5 -11 16 -6 30 6 19 3 21 -27 20 -18 0
-39 -3 -45 -6z"/>
<path d="M677 1726 c-3 -8 -16 -16 -29 -18 -14 -2 -26 -13 -32 -29 -13 -39 20
-69 78 -69 46 0 68 13 41 24 -8 3 -15 16 -15 30 0 14 -5 28 -10 31 -6 4 -8 15
-5 26 7 23 -20 27 -28 5z m33 -80 c0 -2 -7 -7 -16 -10 -8 -3 -12 -2 -9 4 6 10
25 14 25 6z"/>
<path d="M480 1695 c0 -8 5 -15 10 -15 6 0 10 7 10 15 0 8 -4 15 -10 15 -5 0
-10 -7 -10 -15z"/>
<path d="M2640 1680 c0 -16 7 -20 30 -20 23 0 30 4 30 20 0 16 -7 20 -30 20
-23 0 -30 -4 -30 -20z"/>
<path d="M820 1660 c-8 -5 -10 -10 -5 -10 6 0 17 5 25 10 8 5 11 10 5 10 -5 0
-17 -5 -25 -10z"/>
<path d="M2580 1640 c0 -5 9 -10 20 -10 11 0 20 5 20 10 0 6 -9 10 -20 10 -11
0 -20 -4 -20 -10z"/>
<path d="M2653 1643 c9 -2 25 -2 35 0 9 3 1 5 -18 5 -19 0 -27 -2 -17 -5z"/>
<path d="M837 1633 c-4 -3 -7 -11 -7 -17 0 -6 5 -5 12 2 6 6 9 14 7 17 -3 3
-9 2 -12 -2z"/>
<path d="M1309 1582 c-42 -28 -109 -111 -108 -135 0 -21 1 -21 9 -2 l9 20 1
-20 c1 -11 3 -27 4 -35 2 -8 3 -27 4 -42 1 -19 7 -28 20 -28 15 0 15 2 2 11
-11 8 -12 12 -2 16 6 2 9 10 6 15 -4 7 -2 8 4 4 6 -4 8 -14 5 -23 -5 -13 -2
-15 11 -10 10 4 15 3 11 -3 -8 -12 21 -26 73 -35 40 -6 42 -6 39 16 -3 15 -14
26 -33 32 -16 5 -35 14 -42 20 -21 16 2 29 31 18 18 -7 28 -7 32 0 4 5 16 7
27 3 12 -4 18 -2 14 4 -3 5 -26 13 -50 16 -45 7 -74 36 -35 36 11 0 17 4 14
10 -3 5 0 7 9 4 25 -10 37 4 23 26 -7 12 -23 20 -39 20 -24 0 -28 4 -28 28 0
20 7 32 23 40 13 6 16 11 7 11 -8 1 -27 -7 -41 -17z"/>
<path d="M70 1531 c-12 -9 -13 -14 -2 -31 15 -24 16 -52 2 -66 -14 -14 24
-100 51 -115 29 -15 374 -8 390 8 17 17 19 112 3 127 -8 8 -9 18 -2 29 6 13 5
19 -6 23 -8 3 -19 3 -25 0 -5 -3 -22 -1 -37 4 -15 6 -71 13 -123 15 -53 2
-127 7 -166 10 -42 4 -76 2 -85 -4z"/>
<path d="M1581 1535 c0 -15 47 -70 54 -63 4 3 -7 21 -24 40 -17 18 -30 29 -30
23z"/>
<path d="M2620 1487 c-32 -9 -33 -10 -13 -18 15 -5 24 -20 29 -44 4 -23 16
-43 36 -57 l30 -21 -5 69 c-4 38 -7 70 -7 70 -2 8 -42 9 -70 1z"/>
<path d="M2475 1470 c-3 -5 -1 -10 4 -10 6 0 11 5 11 10 0 6 -2 10 -4 10 -3 0
-8 -4 -11 -10z"/>
<path d="M1 1395 l1 -80 15 43 c13 38 13 47 -1 80 l-15 37 0 -80z"/>
<path d="M2525 1460 c4 -6 11 -8 16 -5 14 9 11 15 -7 15 -8 0 -12 -5 -9 -10z"/>
<path d="M1630 1446 c0 -11 -9 -16 -30 -16 -19 0 -30 -5 -30 -14 0 -8 -3 -22
-6 -31 -5 -13 0 -12 29 5 34 20 36 20 46 3 9 -15 10 -12 11 19 0 20 -4 40 -10
43 -5 3 -10 -1 -10 -9z"/>
<path d="M1257 1334 c-11 -11 3 -24 24 -24 18 0 19 2 5 15 -16 17 -20 18 -29
9z"/>
<path d="M2142 1310 c0 -14 2 -19 5 -12 2 6 2 18 0 25 -3 6 -5 1 -5 -13z"/>
<path d="M0 1140 c0 -97 1 -100 23 -102 69 -5 117 -8 157 -9 25 0 72 -1 105
-1 33 -1 76 -1 95 0 19 1 49 2 66 2 24 0 33 6 37 22 11 39 -4 103 -32 136
l-26 33 -120 4 c-66 3 -162 7 -212 10 l-93 5 0 -100z"/>
<path d="M0 485 l0 -485 38 0 38 0 16 103 c16 97 83 343 128 472 35 97 41 123
27 105 -14 -18 -69 -18 -110 -2 -15 7 -48 13 -73 14 -25 1 -40 5 -33 9 6 3 29
4 50 2 25 -4 39 -2 39 6 0 6 10 11 23 11 13 0 32 6 42 14 14 10 25 11 37 5 10
-5 18 -7 18 -4 0 3 9 1 20 -5 12 -6 20 -7 20 -1 0 5 23 34 50 64 32 35 46 57
38 60 -7 2 -5 3 5 1 10 -1 34 7 54 18 19 12 59 27 87 34 47 11 48 12 16 13
-26 1 -31 4 -20 11 13 8 12 10 -2 10 -10 0 -18 -7 -18 -15 0 -8 -6 -12 -12
-10 -7 3 -26 -6 -42 -20 -16 -14 -32 -23 -35 -20 -3 4 0 10 8 14 7 5 -10 6
-38 3 -45 -4 -51 -2 -51 15 0 22 -54 45 -86 37 -20 -5 -21 -12 -20 -84 1 -92
-10 -114 -43 -79 -18 20 -20 30 -15 89 8 82 -2 93 -92 98 l-64 3 0 -486z m345
356 c3 -5 2 -12 -3 -15 -5 -3 -9 1 -9 9 0 17 3 19 12 6z m-146 -251 c11 -24
11 -24 -3 -6 -11 13 -16 15 -16 6 0 -7 -2 -11 -5 -8 -3 3 -3 13 1 22 7 19 7
19 23 -14z m19 5 c-3 -3 -9 2 -12 12 -6 14 -5 15 5 6 7 -7 10 -15 7 -18z"/>
<path d="M430 920 c-13 -8 -13 -10 2 -10 9 0 20 5 23 10 8 13 -5 13 -25 0z"/>
<path d="M2680 836 c0 -22 3 -27 11 -19 8 8 8 16 0 30 -9 16 -10 14 -11 -11z"/>
<path d="M2325 791 c33 -9 67 -20 75 -25 8 -4 6 0 -5 8 -21 18 -79 36 -110 35
-11 0 7 -8 40 -18z"/>
<path d="M2426 762 c-3 -5 9 -22 27 -38 l32 -29 -28 31 c-15 17 -24 33 -20 37
3 4 4 7 0 7 -3 0 -8 -4 -11 -8z"/>
<path d="M138 703 c7 -3 16 -2 19 1 4 3 -2 6 -13 5 -11 0 -14 -3 -6 -6z"/>
<path d="M2531 532 c16 -53 29 -106 29 -117 1 -20 1 -20 15 -1 10 13 18 16 27
9 7 -5 32 -11 56 -12 l43 -2 -3 98 -3 98 -30 2 c-54 2 -148 14 -155 18 -4 3 5
-39 21 -93z"/>
<path d="M1452 530 c-6 -11 -12 -27 -12 -35 0 -9 -4 -13 -10 -10 -13 8 -13 -8
2 -40 9 -21 17 -25 36 -20 21 5 23 3 22 -22 -3 -44 -1 -48 14 -28 8 11 12 25
9 32 -8 20 5 16 35 -12 33 -31 42 -31 42 -4 0 15 -5 19 -15 15 -9 -3 -18 1
-21 9 -4 8 -11 15 -18 15 -6 0 -17 9 -24 20 -7 11 -21 20 -32 20 -11 0 -20 6
-20 13 0 24 13 28 32 10 10 -9 18 -11 18 -6 0 6 -7 16 -15 23 -9 7 -14 19 -11
27 8 21 -18 15 -32 -7z"/>
<path d="M1335 519 c-4 -6 -14 -8 -22 -5 -11 5 -13 2 -9 -9 3 -10 2 -13 -5
-10 -6 4 -13 -2 -16 -14 -6 -22 -37 -29 -48 -11 -5 8 -11 7 -21 -1 -22 -18
-17 -29 13 -29 15 0 37 -10 49 -21 22 -20 22 -23 7 -46 -15 -23 -15 -26 5 -46
19 -19 22 -19 22 -4 0 9 5 17 10 17 6 0 10 9 10 20 0 11 -3 20 -7 20 -5 0 -8
16 -8 35 0 27 3 34 15 30 12 -5 12 -4 3 6 -10 10 -7 20 13 46 19 25 21 33 10
33 -8 0 -18 -5 -21 -11z"/>
<path d="M1161 447 c-9 -12 -8 -16 4 -21 8 -3 15 -14 15 -24 0 -10 7 -19 15
-19 17 0 11 43 -10 65 -10 11 -14 10 -24 -1z"/>
<path d="M1580 438 c0 -10 42 -27 53 -21 16 9 6 21 -23 25 -16 3 -30 1 -30 -4z"/>
<path d="M1380 419 c0 -11 27 -12 34 -1 2 4 -4 9 -15 9 -10 1 -19 -2 -19 -8z"/>
<path d="M1380 380 c-13 -9 -11 -13 10 -29 24 -19 40 -19 40 0 0 5 -6 9 -14 9
-8 0 -18 5 -22 12 -5 7 -3 8 6 3 9 -5 11 -4 6 3 -9 14 -7 14 -26 2z"/>
<path d="M1515 370 c-3 -5 -1 -10 4 -10 6 0 11 5 11 10 0 6 -2 10 -4 10 -3 0
-8 -4 -11 -10z"/>
<path d="M2585 320 c3 -19 14 -73 24 -120 l18 -85 36 -3 37 -3 0 114 0 115
-34 4 c-19 2 -43 1 -53 -3 -10 -3 -22 -1 -26 5 -5 6 -6 -5 -2 -24z"/>
<path d="M1325 331 c-6 -5 15 -31 25 -31 4 0 10 8 12 18 4 12 -1 18 -14 18
-10 0 -21 -2 -23 -5z"/>
<path d="M2640 16 c0 -11 10 -16 31 -16 38 0 35 24 -4 28 -19 2 -27 -1 -27
-12z"/>
</g>
</svg>
